<svg xmlns="http://www.w3.org/2000/svg" xmlns:xlink="http://www.w3.org/1999/xlink" width="880" zoomAndPan="magnify" viewBox="0 0 660 540.000001" height="720" preserveAspectRatio="xMidYMid meet" version="1.0"><path fill="rgb(32.159424%, 44.309998%, 100%)" d="M 469.363281 299.730469 C 471.332031 317.46875 471.425781 334.835938 468.578125 352.480469 C 457.21875 422.917969 404.277344 444.183594 351.753906 394.769531 C 331.285156 375.507812 319.472656 349.757812 296.867188 329.347656 C 254.015625 290.667969 208.613281 293.175781 180.082031 234.355469 C 173.59375 220.984375 167.460938 206.488281 165.285156 191.679688 C 160.976562 162.367188 168.167969 137.199219 183.636719 112.328125 C 236.226562 27.765625 357.339844 16.542969 434.238281 74.714844 C 449.15625 86 464.539062 98.027344 473.289062 115.003906 C 505.300781 177.121094 393.269531 225.910156 414.140625 274.558594 C 424.851562 299.527344 448.4375 276.300781 464.410156 290.144531 L 469.363281 299.730469 " fill-opacity="1" fill-rule="evenodd"/></svg>