<svg xmlns="http://www.w3.org/2000/svg" xmlns:xlink="http://www.w3.org/1999/xlink" width="1728" zoomAndPan="magnify" viewBox="0 0 1296 1295.99994" height="1728" preserveAspectRatio="xMidYMid meet" version="1.0"><defs><clipPath id="id1"><path d="M 293 226 L 672 226 L 672 395 L 293 395 Z M 293 226 " clip-rule="nonzero"/></clipPath><clipPath id="id2"><path d="M 293.609375 254.703125 L 660.78125 226.5625 L 671.5 366.402344 L 304.328125 394.542969 Z M 293.609375 254.703125 " clip-rule="nonzero"/></clipPath><clipPath id="id3"><path d="M -314.917969 614.855469 L 951.867188 517.765625 L 898.851562 -173.957031 L -367.929688 -76.867188 Z M -314.917969 614.855469 " clip-rule="nonzero"/></clipPath><clipPath id="id4"><path d="M 293 247 L 646 247 L 646 384 L 293 384 Z M 293 247 " clip-rule="nonzero"/></clipPath><clipPath id="id5"><path d="M 293.609375 254.703125 L 660.78125 226.5625 L 671.5 366.402344 L 304.328125 394.542969 Z M 293.609375 254.703125 " clip-rule="nonzero"/></clipPath><clipPath id="id6"><path d="M -314.917969 614.855469 L 951.867188 517.765625 L 898.851562 -173.957031 L -367.929688 -76.867188 Z M -314.917969 614.855469 " clip-rule="nonzero"/></clipPath><clipPath id="id7"><path d="M 273 173.808594 L 1024 173.808594 L 1024 1116.558594 L 273 1116.558594 Z M 273 173.808594 " clip-rule="nonzero"/></clipPath><clipPath id="id8"><path d="M 972 235 L 1283 235 L 1283 861 L 972 861 Z M 972 235 " clip-rule="nonzero"/></clipPath><clipPath id="id9"><path d="M 1026.503906 235.605469 L 1350.691406 264.78125 L 1297.117188 860.125 L 972.929688 830.949219 Z M 1026.503906 235.605469 " clip-rule="nonzero"/></clipPath><clipPath id="id10"><path d="M -529.277344 95.601562 L 1350.128906 264.730469 L 1263.011719 1232.816406 L -616.394531 1063.691406 Z M -529.277344 95.601562 " clip-rule="nonzero"/></clipPath><clipPath id="id11"><path d="M 646.109375 351.753906 L 956.609375 351.753906 L 956.609375 470.253906 L 646.109375 470.253906 Z M 646.109375 351.753906 " clip-rule="nonzero"/></clipPath><clipPath id="id12"><path d="M 646.109375 360 L 942 360 L 942 455 L 646.109375 455 Z M 646.109375 360 " clip-rule="nonzero"/></clipPath><clipPath id="id13"><path d="M 13 235 L 325 235 L 325 861 L 13 861 Z M 13 235 " clip-rule="nonzero"/></clipPath><clipPath id="id14"><path d="M -54.464844 264.84375 L 269.679688 235.167969 L 324.175781 830.425781 L 0.03125 860.101562 Z M -54.464844 264.84375 " clip-rule="nonzero"/></clipPath><clipPath id="id15"><path d="M 1825.007812 92.773438 L -54.132812 264.8125 L 34.484375 1232.765625 L 1913.625 1060.726562 Z M 1825.007812 92.773438 " clip-rule="nonzero"/></clipPath><clipPath id="id16"><path d="M 228 324 L 472 324 L 472 806 L 228 806 Z M 228 324 " clip-rule="nonzero"/></clipPath><clipPath id="id17"><path d="M 228.3125 778.511719 L 298.328125 324.882812 L 471.03125 351.539062 L 401.015625 805.167969 Z M 228.3125 778.511719 " clip-rule="nonzero"/></clipPath><clipPath id="id18"><path d="M 492.496094 1618.355469 L 733.773438 55.117188 L -120.117188 -76.675781 L -361.394531 1486.5625 Z M 492.496094 1618.355469 " clip-rule="nonzero"/></clipPath><clipPath id="id19"><path d="M 228 353 L 388 353 L 388 806 L 228 806 Z M 228 353 " clip-rule="nonzero"/></clipPath><clipPath id="id20"><path d="M 228.3125 778.511719 L 298.328125 324.882812 L 471.03125 351.539062 L 401.015625 805.167969 Z M 228.3125 778.511719 " clip-rule="nonzero"/></clipPath><clipPath id="id21"><path d="M 492.496094 1618.355469 L 733.773438 55.117188 L -120.117188 -76.675781 L -361.394531 1486.5625 Z M 492.496094 1618.355469 " clip-rule="nonzero"/></clipPath><clipPath id="id22"><path d="M 335.296875 351.753906 L 645.796875 351.753906 L 645.796875 470.253906 L 335.296875 470.253906 Z M 335.296875 351.753906 " clip-rule="nonzero"/></clipPath><clipPath id="id23"><path d="M 350 360 L 645.796875 360 L 645.796875 455 L 350 455 Z M 350 360 " clip-rule="nonzero"/></clipPath><clipPath id="id24"><path d="M 293 209 L 672 209 L 672 378 L 293 378 Z M 293 209 " clip-rule="nonzero"/></clipPath><clipPath id="id25"><path d="M 293.609375 237.933594 L 660.78125 209.792969 L 671.5 349.632812 L 304.328125 377.773438 Z M 293.609375 237.933594 " clip-rule="nonzero"/></clipPath><clipPath id="id26"><path d="M -314.917969 598.082031 L 951.867188 500.992188 L 898.851562 -190.726562 L -367.929688 -93.636719 Z M -314.917969 598.082031 " clip-rule="nonzero"/></clipPath><clipPath id="id27"><path d="M 293 230 L 646 230 L 646 367 L 293 367 Z M 293 230 " clip-rule="nonzero"/></clipPath><clipPath id="id28"><path d="M 293.609375 237.933594 L 660.78125 209.792969 L 671.5 349.632812 L 304.328125 377.773438 Z M 293.609375 237.933594 " clip-rule="nonzero"/></clipPath><clipPath id="id29"><path d="M -314.917969 598.082031 L 951.867188 500.992188 L 898.851562 -190.726562 L -367.929688 -93.636719 Z M -314.917969 598.082031 " clip-rule="nonzero"/></clipPath><clipPath id="id30"><path d="M 319 709 L 655 709 L 655 1123 L 319 1123 Z M 319 709 " clip-rule="nonzero"/></clipPath><clipPath id="id31"><path d="M 527.761719 1122.183594 L 319.855469 788.679688 L 446.507812 709.722656 L 654.417969 1043.226562 Z M 527.761719 1122.183594 " clip-rule="nonzero"/></clipPath><clipPath id="id32"><path d="M 1168.503906 1519.835938 L 451.539062 369.765625 L -176.640625 761.378906 L 540.324219 1911.449219 Z M 1168.503906 1519.835938 " clip-rule="nonzero"/></clipPath><clipPath id="id33"><path d="M 352 783 L 655 783 L 655 1123 L 352 1123 Z M 352 783 " clip-rule="nonzero"/></clipPath><clipPath id="id34"><path d="M 527.761719 1122.183594 L 319.855469 788.679688 L 446.507812 709.722656 L 654.417969 1043.226562 Z M 527.761719 1122.183594 " clip-rule="nonzero"/></clipPath><clipPath id="id35"><path d="M 1168.503906 1519.835938 L 451.539062 369.765625 L -176.640625 761.378906 L 540.324219 1911.449219 Z M 1168.503906 1519.835938 " clip-rule="nonzero"/></clipPath><clipPath id="id36"><path d="M 293 238 L 618 238 L 618 383 L 293 383 Z M 293 238 " clip-rule="nonzero"/></clipPath><clipPath id="id37"><path d="M 293.609375 262.699219 L 608.4375 238.570312 L 617.605469 358.21875 L 302.78125 382.347656 Z M 293.609375 262.699219 " clip-rule="nonzero"/></clipPath><clipPath id="id38"><path d="M -227.667969 571.207031 L 857.398438 488.046875 L 811.949219 -104.964844 L -273.117188 -21.800781 Z M -227.667969 571.207031 " clip-rule="nonzero"/></clipPath><clipPath id="id39"><path d="M 293 256 L 596 256 L 596 374 L 293 374 Z M 293 256 " clip-rule="nonzero"/></clipPath><clipPath id="id40"><path d="M 293.609375 262.699219 L 608.4375 238.570312 L 617.605469 358.21875 L 302.78125 382.347656 Z M 293.609375 262.699219 " clip-rule="nonzero"/></clipPath><clipPath id="id41"><path d="M -227.667969 571.207031 L 857.398438 488.046875 L 811.949219 -104.964844 L -273.117188 -21.800781 Z M -227.667969 571.207031 " clip-rule="nonzero"/></clipPath></defs><g clip-path="url(#id1)"><g clip-path="url(#id2)"><g clip-path="url(#id3)"><path fill="rgb(100%, 100%, 100%)" d="M 834.675781 197.96875 C 793.425781 145.511719 732.582031 89.699219 645.761719 34.691406 C 670.648438 65.695312 689.007812 98.214844 702.320312 130.269531 C 722.816406 179.605469 731.5625 227.835938 734.675781 268.304688 C 738.761719 321.742188 733.042969 361.730469 731.074219 373.402344 C 736.4375 383.347656 749.132812 405.097656 767.65625 425.835938 C 780.113281 439.828125 795.160156 453.277344 811.917969 462.582031 C 820.304688 467.242188 829.105469 470.878906 838.28125 473.160156 C 847.472656 475.441406 857.039062 476.390625 867.167969 475.625 C 872.042969 475.242188 877.261719 473.226562 882.734375 468.894531 C 890.910156 462.449219 899.167969 450.628906 904.660156 434.046875 C 910.183594 417.503906 913 396.335938 911.101562 371.699219 C 907.472656 324.199219 886.398438 263.730469 834.675781 197.96875 Z M 463.335938 -65.53125 C 396.773438 -94.742188 331.992188 -101.214844 274.785156 -96.835938 C 217.609375 -92.46875 168.117188 -77.152344 133.058594 -62.929688 C 115.527344 -55.820312 101.617188 -49.003906 92.15625 -43.996094 C 87.425781 -41.492188 83.808594 -39.449219 81.410156 -38.046875 C 80.210938 -37.347656 79.3125 -36.808594 78.738281 -36.457031 L 78.265625 -36.175781 C 34.710938 -5.65625 0.984375 27.109375 -25.089844 60.597656 C -64.257812 110.929688 -86.21875 162.964844 -97.789062 211.78125 C -109.34375 260.59375 -110.429688 306.195312 -107.597656 343.144531 C -105.519531 370.265625 -101.335938 392.714844 -97.691406 408.265625 C -96.15625 414.84375 -94.734375 420.105469 -93.597656 424.042969 L 311.4375 490.296875 L 703.210938 362.59375 C 705.351562 347.507812 708.890625 313.617188 705.578125 270.535156 C 701.695312 219.757812 688.328125 156.394531 652.53125 95.632812 C 634.617188 65.242188 611.113281 35.441406 580.214844 7.984375 C 549.304688 -19.476562 510.988281 -44.605469 463.335938 -65.53125 Z M -246.421875 300.246094 C -287.523438 373.105469 -299.121094 436.085938 -295.480469 483.582031 C -292.984375 516.441406 -283.082031 541.898438 -271.09375 558.054688 C -265.117188 566.148438 -258.660156 571.886719 -252.621094 575.316406 C -246.558594 578.765625 -241.085938 579.960938 -236.203125 579.59375 C -226.003906 578.804688 -216.625 576.375 -207.828125 572.675781 C -192.46875 566.207031 -178.863281 555.6875 -167.121094 543.1875 C -149.492188 524.480469 -136.285156 501.414062 -127.726562 483.128906 C -123.433594 473.992188 -120.28125 466.050781 -118.226562 460.460938 C -117.195312 457.667969 -116.441406 455.464844 -115.953125 453.976562 C -115.710938 453.25 -115.53125 452.6875 -115.421875 452.335938 L -115.300781 451.953125 L -115.277344 451.878906 C -114.921875 450.699219 -114.394531 449.625 -113.789062 448.605469 C -116.820312 446.359375 -118.871094 443.011719 -119.476562 439.242188 C -122.519531 429.835938 -132.886719 394.972656 -136.695312 345.375 C -140.703125 292.964844 -137.375 223.980469 -109.761719 151.671875 C -105.808594 141.3125 -101.28125 130.875 -96.28125 120.429688 C -167.25 184.253906 -215.3125 245.082031 -246.421875 300.246094 Z M 900.902344 491.722656 C 891.710938 499.058594 880.898438 503.832031 869.394531 504.703125 C 855.921875 505.738281 843.027344 504.433594 830.949219 501.398438 C 809.800781 496.078125 791.253906 485.5625 775.359375 473.152344 C 751.53125 454.496094 733.425781 431.488281 721.027344 413.082031 C 715.441406 404.765625 711.042969 397.398438 707.867188 391.757812 L 317.109375 519.125 C 314.914062 519.839844 312.503906 520.023438 310.226562 519.652344 L -86.789062 454.722656 C -86.625 456.53125 -86.769531 458.386719 -87.320312 460.234375 C -87.582031 461 -97.613281 494.71875 -120.417969 530.257812 C -131.855469 548.015625 -146.523438 566.300781 -165.253906 580.976562 C -174.617188 588.300781 -185.011719 594.714844 -196.488281 599.546875 C -207.953125 604.390625 -220.507812 607.652344 -233.96875 608.675781 C -245.476562 609.566406 -256.894531 606.496094 -267.101562 600.648438 C -282.460938 591.824219 -295.554688 576.976562 -305.566406 557.546875 C -315.554688 538.089844 -322.417969 513.910156 -324.578125 485.8125 C -328.722656 431.648438 -315.3125 362.984375 -271.839844 285.914062 C -229.511719 210.882812 -158.726562 127.875 -47.578125 42.003906 C -19.695312 6.328125 16.144531 -28.316406 61.792969 -60.257812 L 62.351562 -60.625 C 62.921875 -60.984375 84.957031 -74.90625 122.097656 -89.964844 C 159.230469 -105.015625 211.496094 -121.234375 272.554688 -125.929688 C 333.582031 -130.609375 403.519531 -123.664062 475.070312 -92.242188 C 514.144531 -75.09375 547.597656 -55.066406 576.195312 -33.117188 C 580.109375 -34.722656 584.65625 -34.683594 588.648438 -32.511719 C 717.222656 37.082031 802.898438 110.382812 857.617188 179.941406 C 912.332031 249.488281 936.042969 315.3125 940.203125 369.46875 C 943.046875 406.929688 936.648438 438.796875 924.195312 462.585938 C 917.9375 474.464844 910.140625 484.371094 900.902344 491.722656 " fill-opacity="1" fill-rule="nonzero"/></g></g></g><g clip-path="url(#id4)"><g clip-path="url(#id5)"><g clip-path="url(#id6)"><path fill="rgb(100%, 100%, 100%)" d="M 301.003906 354.125 L 569.671875 266.550781 L 626.683594 247.96875 C 634.34375 245.46875 642.578125 249.660156 645.070312 257.320312 C 647.578125 264.980469 643.390625 273.207031 635.730469 275.703125 L 306.675781 382.960938 C 304.476562 383.679688 302.066406 383.863281 299.792969 383.488281 L -41.765625 327.628906 C -49.71875 326.328125 -55.109375 318.835938 -53.808594 310.882812 C -52.511719 302.933594 -45.007812 297.535156 -37.054688 298.839844 L 22.121094 308.515625 L 301.003906 354.125 " fill-opacity="1" fill-rule="nonzero"/></g></g></g><g clip-path="url(#id7)"><path fill="rgb(100%, 100%, 100%)" d="M 273.625 303.65625 L 317.742188 803.8125 C 430.476562 968.085938 648.582031 1116.421875 648.582031 1116.421875 C 648.582031 1116.421875 866.691406 968.085938 979.417969 803.8125 L 1023.53125 303.65625 C 815.226562 270.640625 648.582031 173.722656 648.582031 173.722656 C 648.582031 173.722656 481.933594 270.640625 273.625 303.65625 " fill-opacity="1" fill-rule="nonzero"/></g><path fill="rgb(26.269531%, 29.798889%, 90.589905%)" d="M 324.347656 349.84375 L 362.496094 782.34375 C 459.980469 924.390625 648.582031 1052.664062 648.582031 1052.664062 C 648.582031 1052.664062 837.1875 924.390625 934.664062 782.34375 L 972.8125 349.84375 C 792.691406 321.28125 648.582031 237.476562 648.582031 237.476562 C 648.582031 237.476562 504.476562 321.28125 324.347656 349.84375 " fill-opacity="1" fill-rule="nonzero"/><path fill="rgb(100%, 100%, 100%)" d="M 647.109375 1051.644531 C 629.683594 1039.605469 459.441406 920.234375 366.113281 787.546875 C 459.398438 920.167969 629.535156 1039.507812 647.109375 1051.644531 M 366.113281 787.539062 C 365.984375 787.363281 365.867188 787.191406 365.746094 787.019531 C 365.867188 787.191406 365.984375 787.363281 366.113281 787.539062 M 365.738281 787.007812 C 365.691406 786.945312 365.648438 786.882812 365.601562 786.816406 C 365.648438 786.890625 365.683594 786.9375 365.738281 787.007812 M 365.582031 786.789062 C 365.546875 786.746094 365.5 786.671875 365.464844 786.625 C 365.5 786.671875 365.546875 786.734375 365.582031 786.789062 M 365.417969 786.554688 C 365.390625 786.515625 365.355469 786.472656 365.328125 786.425781 C 365.355469 786.472656 365.390625 786.515625 365.417969 786.554688 M 365.273438 786.34375 C 365.246094 786.316406 365.210938 786.261719 365.191406 786.234375 C 365.21875 786.261719 365.246094 786.316406 365.273438 786.34375 M 365.128906 786.144531 C 365.109375 786.105469 365.074219 786.070312 365.054688 786.035156 C 365.082031 786.070312 365.101562 786.105469 365.128906 786.144531 M 364.992188 785.953125 C 364.972656 785.914062 364.945312 785.871094 364.917969 785.84375 C 364.945312 785.878906 364.964844 785.914062 364.992188 785.953125 M 364.84375 785.742188 C 364.828125 785.714844 364.808594 785.6875 364.789062 785.660156 C 364.808594 785.6875 364.828125 785.714844 364.84375 785.742188 M 364.707031 785.542969 C 364.691406 785.515625 364.671875 785.496094 364.652344 785.46875 C 364.671875 785.496094 364.691406 785.515625 364.707031 785.542969 M 364.5625 785.339844 C 364.554688 785.324219 364.535156 785.285156 364.515625 785.269531 C 364.535156 785.285156 364.554688 785.324219 364.5625 785.339844 M 364.425781 785.132812 C 364.417969 785.121094 364.390625 785.085938 364.378906 785.066406 C 364.390625 785.085938 364.417969 785.113281 364.425781 785.132812 M 364.28125 784.929688 C 364.269531 784.914062 364.253906 784.886719 364.242188 784.875 C 364.261719 784.894531 364.261719 784.902344 364.28125 784.929688 M 364.144531 784.730469 C 364.132812 784.710938 364.117188 784.695312 364.105469 784.675781 C 364.117188 784.695312 364.132812 784.710938 364.144531 784.730469 M 364.007812 784.53125 C 363.996094 784.511719 363.980469 784.492188 363.972656 784.484375 C 363.988281 784.503906 363.988281 784.503906 364.007812 784.53125 M 363.871094 784.328125 C 363.851562 784.3125 363.863281 784.3125 363.84375 784.300781 C 363.851562 784.300781 363.863281 784.320312 363.871094 784.328125 M 363.734375 784.136719 C 363.734375 784.128906 363.726562 784.121094 363.714844 784.109375 C 363.726562 784.121094 363.734375 784.128906 363.734375 784.136719 M 363.597656 783.945312 C 363.597656 783.9375 363.589844 783.917969 363.578125 783.910156 C 363.589844 783.929688 363.589844 783.929688 363.597656 783.945312 M 363.460938 783.738281 C 363.453125 783.726562 363.453125 783.71875 363.441406 783.710938 C 363.453125 783.71875 363.453125 783.726562 363.460938 783.738281 M 363.324219 783.546875 C 363.316406 783.527344 363.316406 783.527344 363.304688 783.507812 C 363.304688 783.519531 363.324219 783.535156 363.324219 783.546875 M 363.1875 783.34375 C 363.179688 783.328125 363.179688 783.328125 363.167969 783.316406 C 363.179688 783.328125 363.179688 783.328125 363.1875 783.34375 M 363.050781 783.144531 C 363.042969 783.125 363.042969 783.136719 363.03125 783.117188 C 363.03125 783.125 363.042969 783.136719 363.050781 783.144531 M 362.914062 782.945312 C 362.90625 782.933594 362.90625 782.933594 362.894531 782.917969 C 362.894531 782.925781 362.90625 782.933594 362.914062 782.945312 M 362.777344 782.742188 C 362.769531 782.734375 362.757812 782.734375 362.757812 782.726562 C 362.757812 782.734375 362.769531 782.734375 362.777344 782.742188 M 362.632812 782.542969 L 362.621094 782.523438 C 362.632812 782.535156 362.632812 782.535156 362.632812 782.542969 M 324.609375 349.796875 C 324.628906 349.796875 324.628906 349.796875 324.648438 349.789062 C 324.636719 349.796875 324.621094 349.796875 324.609375 349.796875 M 324.867188 349.761719 C 324.875 349.761719 324.902344 349.75 324.910156 349.75 C 324.902344 349.75 324.882812 349.761719 324.867188 349.761719 M 325.140625 349.714844 C 325.148438 349.714844 325.148438 349.714844 325.15625 349.707031 C 325.148438 349.714844 325.148438 349.714844 325.140625 349.714844 M 325.394531 349.667969 C 325.402344 349.667969 325.429688 349.667969 325.4375 349.667969 C 325.429688 349.667969 325.402344 349.667969 325.394531 349.667969 M 325.648438 349.632812 C 325.65625 349.632812 325.683594 349.625 325.695312 349.625 C 325.683594 349.625 325.65625 349.632812 325.648438 349.632812 M 325.921875 349.585938 L 325.949219 349.585938 L 325.921875 349.585938 M 326.1875 349.550781 C 326.195312 349.542969 326.195312 349.542969 326.203125 349.542969 L 326.1875 349.550781 M 326.449219 349.503906 L 326.46875 349.496094 L 326.449219 349.503906 " fill-opacity="1" fill-rule="nonzero"/><path fill="rgb(100%, 100%, 100%)" d="M 647.109375 1051.644531 C 629.535156 1039.507812 459.398438 920.167969 366.113281 787.546875 L 366.113281 787.539062 C 365.984375 787.363281 365.867188 787.191406 365.746094 787.019531 C 365.738281 787.007812 365.738281 787.019531 365.738281 787.007812 C 365.683594 786.9375 365.648438 786.890625 365.601562 786.816406 C 365.59375 786.808594 365.59375 786.800781 365.582031 786.789062 C 365.546875 786.734375 365.5 786.671875 365.464844 786.625 C 365.445312 786.597656 365.4375 786.582031 365.417969 786.554688 C 365.390625 786.515625 365.355469 786.472656 365.328125 786.425781 C 365.308594 786.398438 365.292969 786.378906 365.273438 786.34375 C 365.246094 786.316406 365.21875 786.261719 365.191406 786.234375 C 365.164062 786.199219 365.15625 786.179688 365.128906 786.144531 C 365.101562 786.105469 365.082031 786.070312 365.054688 786.035156 C 365.027344 786.007812 365.019531 785.980469 364.992188 785.953125 C 364.964844 785.914062 364.945312 785.878906 364.917969 785.84375 C 364.898438 785.804688 364.871094 785.769531 364.84375 785.742188 C 364.828125 785.714844 364.808594 785.6875 364.789062 785.660156 C 364.761719 785.625 364.734375 785.578125 364.707031 785.542969 C 364.691406 785.515625 364.671875 785.496094 364.652344 785.46875 C 364.625 785.421875 364.597656 785.386719 364.5625 785.339844 C 364.554688 785.324219 364.535156 785.285156 364.515625 785.269531 C 364.488281 785.222656 364.460938 785.1875 364.425781 785.132812 C 364.417969 785.113281 364.390625 785.085938 364.378906 785.066406 C 364.34375 785.023438 364.316406 784.976562 364.28125 784.929688 C 364.261719 784.902344 364.261719 784.894531 364.242188 784.875 C 364.207031 784.820312 364.179688 784.777344 364.144531 784.730469 C 364.132812 784.710938 364.117188 784.695312 364.105469 784.675781 C 364.070312 784.621094 364.042969 784.585938 364.007812 784.53125 C 363.988281 784.503906 363.988281 784.503906 363.972656 784.484375 C 363.945312 784.4375 363.898438 784.375 363.871094 784.328125 C 363.863281 784.320312 363.851562 784.300781 363.84375 784.300781 C 363.808594 784.246094 363.769531 784.191406 363.734375 784.136719 C 363.734375 784.128906 363.726562 784.121094 363.714844 784.109375 C 363.679688 784.054688 363.644531 784 363.597656 783.945312 C 363.589844 783.929688 363.589844 783.929688 363.578125 783.910156 C 363.535156 783.855469 363.496094 783.800781 363.460938 783.738281 C 363.453125 783.726562 363.453125 783.71875 363.441406 783.710938 C 363.398438 783.65625 363.371094 783.609375 363.324219 783.546875 C 363.324219 783.535156 363.304688 783.519531 363.304688 783.507812 C 363.269531 783.464844 363.222656 783.398438 363.1875 783.34375 C 363.179688 783.328125 363.179688 783.328125 363.167969 783.316406 C 363.132812 783.261719 363.085938 783.199219 363.050781 783.144531 C 363.042969 783.136719 363.03125 783.125 363.03125 783.117188 C 362.996094 783.070312 362.949219 783 362.914062 782.945312 C 362.90625 782.933594 362.894531 782.925781 362.894531 782.917969 C 362.851562 782.863281 362.8125 782.808594 362.777344 782.742188 C 362.769531 782.734375 362.757812 782.734375 362.757812 782.726562 C 362.722656 782.660156 362.675781 782.605469 362.632812 782.542969 C 362.632812 782.535156 362.632812 782.535156 362.621094 782.523438 C 362.578125 782.460938 362.539062 782.40625 362.496094 782.34375 L 324.347656 349.84375 C 324.429688 349.824219 324.527344 349.816406 324.609375 349.796875 C 324.621094 349.796875 324.636719 349.796875 324.648438 349.789062 C 324.71875 349.777344 324.800781 349.769531 324.867188 349.761719 C 324.882812 349.761719 324.902344 349.75 324.910156 349.75 C 324.984375 349.742188 325.058594 349.722656 325.140625 349.714844 C 325.148438 349.714844 325.148438 349.714844 325.15625 349.707031 C 325.246094 349.695312 325.3125 349.6875 325.394531 349.667969 C 325.402344 349.667969 325.429688 349.667969 325.4375 349.667969 C 325.511719 349.652344 325.574219 349.640625 325.648438 349.632812 C 325.65625 349.632812 325.683594 349.625 325.695312 349.625 C 325.777344 349.613281 325.839844 349.605469 325.921875 349.585938 L 325.949219 349.585938 C 326.03125 349.570312 326.105469 349.558594 326.1875 349.550781 L 326.203125 349.542969 C 326.285156 349.53125 326.359375 349.515625 326.449219 349.503906 L 326.46875 349.496094 C 495.097656 322.320312 631.648438 247.054688 647.109375 238.316406 L 647.109375 1051.644531 " fill-opacity="1" fill-rule="nonzero"/><g clip-path="url(#id8)"><g clip-path="url(#id9)"><g clip-path="url(#id10)"><path fill="rgb(100%, 100%, 100%)" d="M 1080.609375 682.574219 C 1029.636719 733.390625 979.730469 764.996094 929.640625 778.089844 C 963.121094 713.445312 984.136719 646.464844 989.917969 582.226562 C 997.730469 495.398438 974.277344 444.605469 916.726562 425.25 C 989.398438 364.65625 1118.382812 286.722656 1191.1875 293.277344 C 1208.472656 294.832031 1220.957031 301.03125 1229.316406 312.242188 C 1279.210938 379.003906 1148.910156 614.5 1080.609375 682.574219 Z M 327.039062 1105.757812 C 21.011719 1078.21875 -212.570312 736.535156 -189.136719 476.125 C -180.804688 383.570312 -146.75 367.882812 -94.5 372.582031 C -52.128906 376.398438 2.890625 395.289062 66.589844 417.164062 C 154.382812 447.304688 263.648438 484.839844 381.957031 495.484375 C 500.296875 506.132812 614.519531 488.714844 706.308594 474.734375 C 772.894531 464.582031 830.410156 455.816406 872.789062 459.628906 C 925.035156 464.332031 955.757812 485.847656 947.429688 578.402344 C 923.996094 838.8125 633.121094 1133.304688 327.039062 1105.757812 Z M -338.785156 554.84375 C -393.824219 475.671875 -479.996094 220.695312 -418.988281 163.90625 C -408.746094 154.375 -395.363281 150.503906 -378.066406 152.058594 C -305.269531 158.613281 -192.269531 258.316406 -131.589844 330.914062 C -191.65625 339.683594 -223.816406 385.472656 -231.628906 472.300781 C -237.410156 536.539062 -228.683594 606.195312 -207.289062 675.777344 C -254.238281 653.9375 -297.695312 613.945312 -338.785156 554.84375 Z M 1263.503906 286.695312 C 1247.679688 265.527344 1224.628906 253.433594 1195.011719 250.769531 C 1091.988281 241.496094 932.261719 350.953125 863.222656 416.410156 C 817.984375 414.644531 762.898438 422.9375 699.890625 432.542969 C 605.707031 446.898438 498.964844 463.164062 385.785156 452.976562 C 272.613281 442.792969 170.523438 407.738281 80.449219 376.800781 C 20.167969 356.101562 -32.554688 338.105469 -77.359375 331.769531 C -133.605469 255.039062 -271.214844 118.824219 -374.242188 109.550781 C -403.875 106.886719 -428.714844 114.671875 -448.054688 132.675781 C -539.011719 217.328125 -426.277344 503.730469 -373.816406 579.210938 C -318.011719 659.460938 -257.089844 708.628906 -188.695312 728.363281 C -164.746094 788.230469 -131.652344 847 -90.5625 901.148438 C 19.703125 1046.410156 166.648438 1134.179688 323.214844 1148.265625 C 479.816406 1162.359375 640.109375 1102.242188 774.550781 978.996094 C 824.640625 933.058594 867.707031 881.140625 901.960938 826.511719 C 972.777344 819.304688 1041.503906 781.800781 1110.726562 712.800781 C 1175.832031 647.902344 1337.882812 386.230469 1263.503906 286.695312 " fill-opacity="1" fill-rule="nonzero"/></g></g></g><g clip-path="url(#id11)"><path fill="rgb(100%, 100%, 100%)" d="M 1104.84375 482.996094 C 1073.527344 529.824219 1025.949219 580.734375 956.46875 632.644531 C 975.40625 604.9375 988.75 576.378906 997.882812 548.53125 C 1011.9375 505.675781 1016.1875 464.507812 1016.195312 430.238281 C 1016.1875 384.988281 1008.800781 351.691406 1006.394531 341.996094 C 1010.261719 333.273438 1019.539062 314.144531 1033.78125 295.492188 C 1043.359375 282.90625 1055.148438 270.617188 1068.644531 261.699219 C 1075.398438 257.238281 1082.566406 253.609375 1090.132812 251.09375 C 1097.71875 248.582031 1105.703125 247.164062 1114.273438 247.15625 C 1118.398438 247.164062 1122.917969 248.523438 1127.800781 251.816406 C 1135.089844 256.71875 1142.800781 266.132812 1148.488281 279.738281 C 1154.203125 293.308594 1157.933594 310.949219 1157.925781 331.8125 C 1157.933594 372.03125 1144.105469 424.300781 1104.84375 482.996094 Z M 809.492188 728.789062 C 755.386719 757.675781 701.316406 767.300781 652.917969 767.304688 C 604.546875 767.320312 561.929688 757.617188 531.523438 747.90625 C 516.324219 743.054688 504.179688 738.210938 495.902344 734.609375 C 491.761719 732.804688 488.585938 731.316406 486.480469 730.292969 C 485.421875 729.78125 484.636719 729.386719 484.128906 729.125 L 483.714844 728.917969 C 445.113281 706.035156 414.632812 680.628906 390.542969 654.121094 C 354.351562 614.273438 332.527344 571.882812 319.644531 531.535156 C 306.78125 491.1875 302.929688 452.867188 302.929688 421.578125 C 302.929688 398.613281 305 379.445312 307.0625 366.117188 C 307.929688 360.480469 308.789062 355.960938 309.492188 352.570312 L 645.898438 270.660156 L 983.65625 352.890625 C 986.425781 365.453125 991.589844 393.753906 991.582031 430.238281 C 991.589844 473.234375 984.425781 527.441406 958.238281 580.902344 C 945.128906 607.644531 927.28125 634.25 903.058594 659.359375 C 878.832031 684.46875 848.222656 708.097656 809.492188 728.789062 Z M 188.929688 466.652344 C 149.660156 407.96875 135.84375 355.695312 135.847656 315.472656 C 135.824219 287.648438 142.515625 265.578125 151.558594 251.203125 C 156.0625 244.003906 161.125 238.757812 165.980469 235.480469 C 170.859375 232.1875 175.382812 230.828125 179.515625 230.820312 C 188.144531 230.828125 196.191406 232.265625 203.828125 234.816406 C 217.164062 239.269531 229.285156 247.246094 239.96875 257.011719 C 256.003906 271.625 268.597656 290.191406 276.976562 305.03125 C 281.175781 312.445312 284.339844 318.929688 286.425781 323.5 C 287.472656 325.785156 288.25 327.59375 288.757812 328.8125 C 289.007812 329.410156 289.195312 329.871094 289.308594 330.160156 L 289.4375 330.476562 L 289.460938 330.535156 C 289.835938 331.507812 290.347656 332.375 290.921875 333.195312 C 288.519531 335.28125 287.007812 338.234375 286.742188 341.445312 C 284.789062 349.558594 278.316406 379.578125 278.308594 421.578125 C 278.316406 465.960938 285.566406 523.816406 313.453125 582.910156 C 317.445312 591.378906 321.925781 599.871094 326.804688 608.34375 C 262.996094 559.191406 218.648438 511.082031 188.929688 466.652344 Z M 1141.609375 231.425781 C 1133.40625 225.847656 1124.003906 222.523438 1114.273438 222.53125 C 1102.871094 222.53125 1092.113281 224.460938 1082.148438 227.796875 C 1064.703125 233.640625 1049.78125 243.6875 1037.210938 255.164062 C 1018.371094 272.40625 1004.628906 292.941406 995.386719 309.238281 C 991.222656 316.601562 988 323.085938 985.691406 328.039062 L 648.8125 246.027344 C 646.917969 245.566406 644.875 245.566406 642.988281 246.027344 L 313.238281 326.304688 C 313.261719 324.773438 313.019531 323.21875 312.433594 321.699219 C 312.167969 321.070312 301.558594 293.332031 280.082031 264.882812 C 269.320312 250.671875 255.804688 236.226562 239.101562 225.078125 C 230.753906 219.515625 221.597656 214.789062 211.632812 211.460938 C 201.679688 208.121094 190.90625 206.183594 179.519531 206.191406 C 169.78125 206.183594 160.375 209.507812 152.167969 215.089844 C 139.816406 223.511719 129.761719 236.851562 122.59375 253.855469 C 115.445312 270.878906 111.234375 291.679688 111.230469 315.472656 C 111.234375 361.339844 126.9375 418.28125 168.472656 480.355469 C 208.914062 540.789062 273.800781 606.105469 372.824219 671.226562 C 398.578125 699.457031 430.957031 726.3125 471.410156 750.257812 L 471.902344 750.527344 C 472.40625 750.792969 491.835938 761.09375 524.046875 771.371094 C 556.25 781.648438 601.257812 791.929688 652.917969 791.941406 C 704.550781 791.945312 762.929688 781.585938 821.082031 750.515625 C 852.84375 733.558594 879.691406 714.539062 902.328125 694.21875 C 905.722656 695.316406 909.546875 694.988281 912.765625 692.902344 C 1016.421875 626.023438 1083.761719 558.78125 1125.304688 496.695312 C 1166.839844 434.617188 1182.539062 377.671875 1182.546875 331.8125 C 1182.527344 300.09375 1175.089844 273.679688 1163.082031 254.453125 C 1157.050781 244.859375 1149.851562 237.019531 1141.609375 231.425781 " fill-opacity="1" fill-rule="nonzero"/></g><g clip-path="url(#id12)"><path fill="rgb(100%, 100%, 100%)" d="M 645.902344 385.972656 L 877.523438 442.359375 L 926.675781 454.328125 C 933.277344 455.9375 939.9375 451.878906 941.539062 445.269531 C 943.15625 438.65625 939.101562 432 932.496094 430.394531 L 648.8125 361.332031 C 646.917969 360.867188 644.875 360.867188 642.988281 361.332031 L 359.304688 430.394531 C 352.695312 432 348.644531 438.65625 350.25 445.269531 C 351.855469 451.878906 358.515625 455.9375 365.117188 454.328125 L 414.269531 442.359375 L 645.902344 385.972656 " fill-opacity="1" fill-rule="nonzero"/></g><g clip-path="url(#id13)"><g clip-path="url(#id14)"><g clip-path="url(#id15)"><path fill="rgb(100%, 100%, 100%)" d="M 216.035156 682.242188 C 267.082031 732.976562 317.042969 764.503906 367.148438 777.519531 C 333.566406 712.929688 312.449219 645.980469 306.566406 581.75 C 298.621094 494.9375 321.996094 444.105469 379.515625 424.660156 C 306.75 364.179688 177.648438 286.449219 104.855469 293.113281 C 87.570312 294.695312 75.09375 300.914062 66.75 312.140625 C 16.960938 378.976562 147.625 614.269531 216.035156 682.242188 Z M 970.257812 1104.257812 C 1276.242188 1076.242188 1509.292969 734.195312 1485.457031 473.824219 C 1476.984375 381.28125 1442.90625 365.644531 1390.660156 370.429688 C 1348.292969 374.308594 1293.304688 393.285156 1229.636719 415.261719 C 1141.894531 445.539062 1032.6875 483.238281 914.394531 494.066406 C 796.070312 504.902344 681.824219 487.65625 590.011719 473.820312 C 523.410156 463.769531 465.882812 455.09375 423.507812 458.972656 C 371.269531 463.753906 340.578125 485.320312 349.050781 577.863281 C 372.890625 838.234375 664.21875 1132.273438 970.257812 1104.257812 Z M 1635.226562 552.3125 C 1690.144531 473.050781 1775.921875 217.941406 1714.824219 161.246094 C 1704.570312 151.734375 1691.179688 147.882812 1673.886719 149.464844 C 1601.097656 156.128906 1488.253906 256.011719 1427.6875 328.699219 C 1487.765625 337.378906 1519.996094 383.117188 1527.945312 469.933594 C 1533.824219 534.160156 1525.203125 603.832031 1503.917969 673.449219 C 1550.832031 651.535156 1594.226562 611.476562 1635.226562 552.3125 Z M 32.527344 286.644531 C 48.316406 265.453125 71.347656 253.320312 100.960938 250.609375 C 203.96875 241.179688 363.863281 350.390625 433.003906 415.738281 C 478.242188 413.902344 533.34375 422.109375 596.363281 431.621094 C 690.566406 445.828125 797.335938 461.925781 910.503906 451.566406 C 1023.65625 441.207031 1125.691406 405.992188 1215.71875 374.917969 C 1275.964844 354.121094 1328.660156 336.046875 1373.457031 329.640625 C 1429.585938 252.824219 1566.984375 116.394531 1669.996094 106.964844 C 1699.625 104.253906 1724.476562 112 1743.839844 129.972656 C 1834.929688 214.484375 1722.640625 501.0625 1670.296875 576.621094 C 1614.617188 656.957031 1553.769531 706.222656 1485.410156 726.0625 C 1461.550781 785.96875 1428.546875 844.789062 1387.542969 898.996094 C 1277.503906 1044.433594 1130.691406 1132.425781 974.148438 1146.757812 C 817.570312 1161.09375 657.183594 1101.222656 522.550781 978.1875 C 472.386719 932.324219 429.242188 880.476562 394.90625 825.898438 C 324.078125 818.800781 255.292969 781.40625 185.960938 712.515625 C 120.757812 647.714844 -41.699219 386.292969 32.527344 286.644531 " fill-opacity="1" fill-rule="nonzero"/></g></g></g><g clip-path="url(#id16)"><g clip-path="url(#id17)"><g clip-path="url(#id18)"><path fill="rgb(100%, 100%, 100%)" d="M 312.738281 106.539062 C 237.429688 141.679688 152.503906 199.621094 61.1875 289.28125 C 105.839844 267.898438 150.476562 254.859375 193.125 247.804688 C 258.765625 236.941406 319.734375 240.007812 369.695312 247.707031 C 435.652344 257.898438 482.53125 276.164062 496.125 281.859375 C 509.710938 278.179688 539.683594 268.949219 570.078125 252.375 C 590.582031 241.238281 611.152344 226.808594 627.191406 209.128906 C 635.214844 200.28125 642.121094 190.644531 647.492188 180.167969 C 652.859375 169.671875 656.722656 158.34375 658.664062 145.847656 C 659.582031 139.828125 658.617188 132.929688 654.914062 125.066406 C 649.414062 113.328125 637.421875 99.964844 618.871094 88.613281 C 600.371094 77.222656 575.5 67.8125 545.082031 63.125 C 486.453125 54.066406 407.144531 62.472656 312.738281 106.539062 Z M -112.058594 482.027344 C -166.347656 554.445312 -192.554688 631.148438 -203.457031 701.738281 C -214.363281 772.292969 -209.816406 836.632812 -202.503906 883.167969 C -198.851562 906.433594 -194.527344 925.234375 -191.136719 938.117188 C -189.441406 944.566406 -187.988281 949.527344 -186.96875 952.832031 C -186.460938 954.488281 -186.0625 955.726562 -185.796875 956.523438 L -185.589844 957.175781 C -160.917969 1018.628906 -130.746094 1068.800781 -97.523438 1109.902344 C -47.582031 1171.65625 9.296875 1213.027344 65.21875 1240.890625 C 121.140625 1268.734375 176.132812 1282.976562 221.742188 1290.015625 C 255.226562 1295.183594 283.632812 1296.472656 303.523438 1296.464844 C 311.9375 1296.46875 318.722656 1296.234375 323.820312 1295.972656 L 518.960938 823.722656 L 475.121094 312.574219 C 457.433594 305.703125 417.339844 291.808594 364.152344 283.609375 C 301.476562 273.925781 220.84375 272.175781 137.011719 298.347656 C 95.078125 311.449219 52.273438 331.496094 10.21875 361.175781 C -31.839844 390.863281 -73.175781 430.191406 -112.058594 482.027344 Z M 130.375 1446.152344 C 207.082031 1516.632812 280.175781 1548.546875 338.804688 1557.589844 C 379.363281 1563.882812 413.042969 1559.089844 436.035156 1549.136719 C 447.542969 1544.1875 456.328125 1537.984375 462.203125 1531.636719 C 468.105469 1525.261719 471.101562 1518.96875 472.042969 1512.945312 C 473.972656 1500.355469 473.6875 1488.296875 471.691406 1476.585938 C 468.199219 1456.132812 459.300781 1436.65625 447.472656 1418.875 C 429.78125 1392.199219 405.550781 1369.65625 385.800781 1354.09375 C 375.941406 1346.300781 367.199219 1340.226562 361.003906 1336.152344 C 357.90625 1334.113281 355.449219 1332.570312 353.785156 1331.558594 C 352.972656 1331.058594 352.34375 1330.679688 351.941406 1330.449219 L 351.515625 1330.195312 L 351.433594 1330.144531 C 350.101562 1329.382812 348.953125 1328.433594 347.886719 1327.414062 C 344.300781 1330.449219 339.660156 1331.992188 334.917969 1331.652344 C 322.648438 1332.679688 277.429688 1335.363281 216.203125 1325.921875 C 151.507812 1315.929688 68.792969 1292.339844 -11.074219 1238.367188 C -22.515625 1230.636719 -33.886719 1222.191406 -45.140625 1213.171875 C 12.148438 1317.296875 72.292969 1392.804688 130.375 1446.152344 Z M 687.75 109.511719 C 694.039062 122.730469 696.761719 137.195312 694.5625 151.386719 C 691.996094 168.015625 686.761719 183.277344 679.65625 197.058594 C 667.210938 221.191406 649.199219 240.691406 629.644531 256.445312 C 600.265625 280.046875 567.234375 295.472656 541.398438 305.285156 C 529.730469 309.699219 519.550781 312.945312 511.808594 315.199219 L 555.523438 825.015625 C 555.769531 827.882812 555.308594 830.859375 554.214844 833.511719 L 362.953125 1296.414062 C 365.191406 1296.726562 367.40625 1297.429688 369.488281 1298.621094 C 370.34375 1299.152344 408.390625 1320.871094 445.027344 1358.59375 C 463.320312 1377.492188 481.335938 1400.457031 493.828125 1427.324219 C 500.058594 1440.753906 504.886719 1455.171875 507.496094 1470.453125 C 510.121094 1485.726562 510.519531 1501.871094 507.945312 1518.480469 C 505.765625 1532.683594 498.800781 1545.65625 488.816406 1556.371094 C 473.761719 1572.492188 452.050781 1584.15625 425.648438 1590.785156 C 399.222656 1597.382812 367.953125 1598.84375 333.265625 1593.5 C 266.402344 1583.171875 186.933594 1547.457031 105.792969 1472.90625 C 26.796875 1400.324219 -53.808594 1290.984375 -126.445312 1131.898438 C -161.804688 1087.984375 -193.664062 1034.710938 -219.464844 970.316406 L -219.75 969.539062 C -220.023438 968.746094 -230.660156 938.085938 -238.398438 888.792969 C -246.128906 839.507812 -250.984375 771.550781 -239.371094 696.195312 C -227.753906 620.886719 -199.507812 538.066406 -141.125 460.234375 C -109.253906 417.722656 -75.484375 382.84375 -40.761719 354.398438 C -41.597656 349.199219 -40.261719 343.695312 -36.496094 339.46875 C 84.335938 203.324219 197.515625 120.234375 297.375 73.613281 C 397.222656 26.996094 483.773438 16.910156 550.625 27.214844 C 596.859375 34.382812 633.691406 51.175781 659.011719 73.015625 C 671.644531 83.96875 681.449219 96.230469 687.75 109.511719 " fill-opacity="1" fill-rule="nonzero"/></g></g></g><g clip-path="url(#id19)"><g clip-path="url(#id20)"><g clip-path="url(#id21)"><path fill="rgb(100%, 100%, 100%)" d="M 350.863281 797.773438 L 320.804688 447.246094 L 314.425781 372.863281 C 313.566406 362.867188 320.980469 354.070312 330.976562 353.222656 C 340.976562 352.351562 349.769531 359.757812 350.621094 369.757812 L 387.4375 799.074219 C 387.6875 801.941406 387.226562 804.917969 386.128906 807.566406 L 221.582031 1205.804688 C 217.753906 1215.082031 207.136719 1219.492188 197.863281 1215.660156 C 188.589844 1211.835938 184.171875 1201.207031 188.007812 1191.9375 L 216.515625 1122.941406 L 350.863281 797.773438 " fill-opacity="1" fill-rule="nonzero"/></g></g></g><g clip-path="url(#id22)"><path fill="rgb(26.269531%, 29.798889%, 90.589905%)" d="M 187.371094 482.996094 C 218.683594 529.824219 266.265625 580.734375 335.742188 632.644531 C 316.808594 604.9375 303.464844 576.378906 294.332031 548.53125 C 280.273438 505.675781 276.023438 464.507812 276.015625 430.238281 C 276.023438 384.988281 283.410156 351.691406 285.820312 341.996094 C 281.949219 333.273438 272.671875 314.144531 258.429688 295.492188 C 248.855469 282.90625 237.066406 270.617188 223.570312 261.699219 C 216.816406 257.238281 209.648438 253.609375 202.078125 251.09375 C 194.492188 248.582031 186.507812 247.164062 177.941406 247.15625 C 173.816406 247.164062 169.296875 248.523438 164.410156 251.816406 C 157.121094 256.71875 149.410156 266.132812 143.726562 279.738281 C 138.011719 293.308594 134.277344 310.949219 134.285156 331.8125 C 134.277344 372.03125 148.105469 424.300781 187.371094 482.996094 Z M 482.71875 728.789062 C 536.824219 757.675781 590.898438 767.300781 639.292969 767.304688 C 687.667969 767.320312 730.28125 757.617188 760.6875 747.90625 C 775.890625 743.054688 788.03125 738.210938 796.3125 734.609375 C 800.453125 732.804688 803.625 731.316406 805.734375 730.292969 C 806.789062 729.78125 807.578125 729.386719 808.085938 729.125 L 808.5 728.917969 C 847.101562 706.035156 877.582031 680.628906 901.671875 654.121094 C 937.859375 614.273438 959.6875 571.882812 972.566406 531.535156 C 985.433594 491.1875 989.285156 452.867188 989.285156 421.578125 C 989.285156 398.613281 987.210938 379.445312 985.148438 366.117188 C 984.28125 360.480469 983.425781 355.960938 982.722656 352.570312 L 646.316406 270.660156 L 308.558594 352.890625 C 305.785156 365.453125 300.625 393.753906 300.632812 430.238281 C 300.625 473.234375 307.785156 527.441406 333.976562 580.902344 C 347.085938 607.644531 364.933594 634.25 389.152344 659.359375 C 413.382812 684.46875 443.988281 708.097656 482.71875 728.789062 Z M 1103.285156 466.652344 C 1142.554688 407.96875 1156.367188 355.695312 1156.363281 315.472656 C 1156.386719 287.648438 1149.695312 265.578125 1140.652344 251.203125 C 1136.152344 244.003906 1131.089844 238.757812 1126.230469 235.480469 C 1121.355469 232.1875 1116.828125 230.828125 1112.695312 230.820312 C 1104.066406 230.828125 1096.023438 232.265625 1088.386719 234.816406 C 1075.050781 239.269531 1062.929688 247.246094 1052.242188 257.011719 C 1036.210938 271.625 1023.617188 290.191406 1015.238281 305.03125 C 1011.039062 312.445312 1007.875 318.929688 1005.785156 323.5 C 1004.738281 325.785156 1003.960938 327.59375 1003.457031 328.8125 C 1003.207031 329.410156 1003.015625 329.871094 1002.902344 330.160156 L 1002.777344 330.476562 L 1002.753906 330.535156 C 1002.378906 331.507812 1001.863281 332.375 1001.289062 333.195312 C 1003.695312 335.28125 1005.203125 338.234375 1005.46875 341.445312 C 1007.425781 349.558594 1013.894531 379.578125 1013.902344 421.578125 C 1013.894531 465.960938 1006.648438 523.816406 978.761719 582.910156 C 974.765625 591.378906 970.289062 599.871094 965.410156 608.34375 C 1029.214844 559.191406 1073.5625 511.082031 1103.285156 466.652344 Z M 150.601562 231.425781 C 158.804688 225.847656 168.207031 222.523438 177.941406 222.53125 C 189.339844 222.53125 200.101562 224.460938 210.066406 227.796875 C 227.511719 233.640625 242.429688 243.6875 255 255.164062 C 273.839844 272.40625 287.585938 292.941406 296.828125 309.238281 C 300.988281 316.601562 304.214844 323.085938 306.523438 328.039062 L 643.402344 246.027344 C 645.296875 245.566406 647.335938 245.566406 649.226562 246.027344 L 978.976562 326.304688 C 978.949219 324.773438 979.195312 323.21875 979.777344 321.699219 C 980.042969 321.070312 990.65625 293.332031 1012.128906 264.882812 C 1022.894531 250.671875 1036.410156 236.226562 1053.109375 225.078125 C 1061.460938 219.515625 1070.613281 214.789062 1080.578125 211.460938 C 1090.535156 208.121094 1101.304688 206.183594 1112.691406 206.191406 C 1122.429688 206.183594 1131.835938 209.507812 1140.042969 215.089844 C 1152.394531 223.511719 1162.449219 236.851562 1169.617188 253.855469 C 1176.765625 270.878906 1180.976562 291.679688 1180.984375 315.472656 C 1180.976562 361.339844 1165.273438 418.28125 1123.738281 480.355469 C 1083.300781 540.789062 1018.414062 606.105469 919.390625 671.226562 C 893.636719 699.457031 861.253906 726.3125 820.800781 750.257812 L 820.308594 750.527344 C 819.804688 750.792969 800.375 761.09375 768.167969 771.371094 C 735.960938 781.648438 690.957031 791.929688 639.292969 791.941406 C 587.664062 791.945312 529.285156 781.585938 471.128906 750.515625 C 439.367188 733.558594 412.519531 714.539062 389.882812 694.21875 C 386.488281 695.316406 382.664062 694.988281 379.445312 692.902344 C 275.789062 626.023438 208.449219 558.78125 166.910156 496.695312 C 125.375 434.617188 109.671875 377.671875 109.664062 331.8125 C 109.6875 300.09375 117.125 273.679688 129.132812 254.453125 C 135.164062 244.859375 142.359375 237.019531 150.601562 231.425781 " fill-opacity="1" fill-rule="nonzero"/></g><g clip-path="url(#id23)"><path fill="rgb(26.269531%, 29.798889%, 90.589905%)" d="M 646.3125 385.972656 L 414.691406 442.359375 L 365.539062 454.328125 C 358.933594 455.9375 352.277344 451.878906 350.675781 445.269531 C 349.058594 438.65625 353.109375 432 359.71875 430.394531 L 643.402344 361.332031 C 645.296875 360.867188 647.335938 360.867188 649.226562 361.332031 L 932.910156 430.394531 C 939.519531 432 943.570312 438.65625 941.960938 445.269531 C 940.355469 451.878906 933.699219 455.9375 927.09375 454.328125 L 877.945312 442.359375 L 646.3125 385.972656 " fill-opacity="1" fill-rule="nonzero"/></g><g clip-path="url(#id24)"><g clip-path="url(#id25)"><g clip-path="url(#id26)"><path fill="rgb(100%, 100%, 100%)" d="M 834.675781 181.199219 C 793.425781 128.742188 732.582031 72.929688 645.761719 17.921875 C 670.648438 48.925781 689.007812 81.441406 702.320312 113.496094 C 722.816406 162.835938 731.5625 211.066406 734.675781 251.535156 C 738.761719 304.96875 733.042969 344.960938 731.074219 356.628906 C 736.4375 366.578125 749.132812 388.324219 767.65625 409.0625 C 780.113281 423.058594 795.160156 436.503906 811.917969 445.8125 C 820.304688 450.46875 829.105469 454.109375 838.28125 456.390625 C 847.472656 458.671875 857.039062 459.621094 867.167969 458.851562 C 872.042969 458.46875 877.261719 456.457031 882.734375 452.125 C 890.910156 445.675781 899.167969 433.859375 904.660156 417.277344 C 910.183594 400.734375 913 379.566406 911.101562 354.925781 C 907.472656 307.429688 886.398438 246.957031 834.675781 181.199219 Z M 463.335938 -82.304688 C 396.773438 -111.511719 331.992188 -117.984375 274.785156 -113.605469 C 217.609375 -109.238281 168.117188 -93.921875 133.058594 -79.699219 C 115.527344 -72.59375 101.617188 -65.773438 92.15625 -60.765625 C 87.425781 -58.261719 83.808594 -56.21875 81.410156 -54.816406 C 80.210938 -54.121094 79.3125 -53.582031 78.738281 -53.226562 L 78.265625 -52.945312 C 34.710938 -22.425781 0.984375 10.335938 -25.089844 43.828125 C -64.257812 94.160156 -86.21875 146.195312 -97.789062 195.011719 C -109.34375 243.824219 -110.429688 289.425781 -107.597656 326.375 C -105.519531 353.496094 -101.335938 375.941406 -97.691406 391.496094 C -96.15625 398.074219 -94.734375 403.335938 -93.597656 407.273438 L 311.4375 473.527344 L 703.210938 345.824219 C 705.351562 330.738281 708.890625 296.847656 705.578125 253.765625 C 701.695312 202.988281 688.328125 139.625 652.53125 78.863281 C 634.617188 48.472656 611.113281 18.667969 580.214844 -8.789062 C 549.304688 -36.246094 510.988281 -61.375 463.335938 -82.304688 Z M -246.421875 283.472656 C -287.523438 356.332031 -299.121094 419.3125 -295.480469 466.808594 C -292.984375 499.671875 -283.082031 525.128906 -271.09375 541.285156 C -265.117188 549.378906 -258.660156 555.113281 -252.621094 558.546875 C -246.558594 561.996094 -241.085938 563.1875 -236.203125 562.824219 C -226.003906 562.03125 -216.625 559.605469 -207.828125 555.902344 C -192.46875 549.433594 -178.863281 538.917969 -167.121094 526.417969 C -149.492188 507.707031 -136.285156 484.644531 -127.726562 466.355469 C -123.433594 457.222656 -120.28125 449.277344 -118.226562 443.691406 C -117.195312 440.898438 -116.441406 438.695312 -115.953125 437.207031 C -115.710938 436.480469 -115.53125 435.917969 -115.421875 435.5625 L -115.300781 435.183594 L -115.277344 435.109375 C -114.921875 433.925781 -114.394531 432.855469 -113.789062 431.835938 C -116.820312 429.589844 -118.871094 426.242188 -119.476562 422.472656 C -122.519531 413.066406 -132.886719 378.203125 -136.695312 328.605469 C -140.703125 276.195312 -137.375 207.210938 -109.761719 134.898438 C -105.808594 124.539062 -101.28125 114.105469 -96.28125 103.660156 C -167.25 167.484375 -215.3125 228.3125 -246.421875 283.472656 Z M 900.902344 474.953125 C 891.710938 482.285156 880.898438 487.0625 869.394531 487.933594 C 855.921875 488.96875 843.027344 487.664062 830.949219 484.628906 C 809.800781 479.308594 791.253906 468.792969 775.359375 456.378906 C 751.53125 437.722656 733.425781 414.714844 721.027344 396.308594 C 715.441406 387.992188 711.042969 380.628906 707.867188 374.988281 L 317.109375 502.351562 C 314.914062 503.070312 312.503906 503.253906 310.226562 502.878906 L -86.789062 437.949219 C -86.625 439.757812 -86.769531 441.617188 -87.320312 443.464844 C -87.582031 444.230469 -97.613281 477.949219 -120.417969 513.488281 C -131.855469 531.246094 -146.523438 549.53125 -165.253906 564.207031 C -174.617188 571.53125 -185.011719 577.945312 -196.488281 582.777344 C -207.953125 587.621094 -220.507812 590.882812 -233.96875 591.90625 C -245.476562 592.796875 -256.894531 589.722656 -267.101562 583.878906 C -282.460938 575.050781 -295.554688 560.207031 -305.566406 540.777344 C -315.554688 521.320312 -322.417969 497.140625 -324.578125 469.039062 C -328.722656 414.875 -315.3125 346.214844 -271.839844 269.144531 C -229.511719 194.113281 -158.726562 111.105469 -47.578125 25.230469 C -19.695312 -10.441406 16.144531 -45.089844 61.792969 -77.027344 L 62.351562 -77.394531 C 62.921875 -77.753906 84.957031 -91.675781 122.097656 -106.734375 C 159.230469 -121.785156 211.496094 -138.003906 272.554688 -142.699219 C 333.582031 -147.382812 403.519531 -140.433594 475.070312 -109.011719 C 514.144531 -91.863281 547.597656 -71.835938 576.195312 -49.890625 C 580.109375 -51.492188 584.65625 -51.453125 588.648438 -49.28125 C 717.222656 20.308594 802.898438 93.613281 857.617188 163.167969 C 912.332031 232.714844 936.042969 298.542969 940.203125 352.695312 C 943.046875 390.15625 936.648438 422.023438 924.195312 445.816406 C 917.9375 457.691406 910.140625 467.601562 900.902344 474.953125 " fill-opacity="1" fill-rule="nonzero"/></g></g></g><g clip-path="url(#id27)"><g clip-path="url(#id28)"><g clip-path="url(#id29)"><path fill="rgb(100%, 100%, 100%)" d="M 301.003906 337.355469 L 569.671875 249.78125 L 626.683594 231.199219 C 634.34375 228.699219 642.578125 232.886719 645.070312 240.550781 C 647.578125 248.207031 643.390625 256.4375 635.730469 258.933594 L 306.675781 366.191406 C 304.476562 366.90625 302.066406 367.09375 299.792969 366.71875 L -41.765625 310.855469 C -49.71875 309.558594 -55.109375 302.0625 -53.808594 294.113281 C -52.511719 286.160156 -45.007812 280.765625 -37.054688 282.066406 L 22.121094 291.746094 L 301.003906 337.355469 " fill-opacity="1" fill-rule="nonzero"/></g></g></g><g clip-path="url(#id30)"><g clip-path="url(#id31)"><g clip-path="url(#id32)"><path fill="rgb(100%, 100%, 100%)" d="M 206.855469 638.464844 C 177.585938 703.375 154.816406 788.464844 145.625 897.726562 C 162.671875 858.882812 184.375 825.46875 208.125 797.054688 C 244.683594 753.316406 285.988281 721.234375 322.738281 698.3125 C 371.269531 668.070312 411.917969 653.734375 423.929688 649.835938 C 430.695312 639.855469 445 617.109375 455.476562 589.359375 C 462.570312 570.667969 467.863281 549.800781 468.398438 529.355469 C 468.664062 519.125 467.765625 509.007812 465.394531 499.203125 C 463.015625 489.386719 459.195312 479.871094 453.46875 470.667969 C 450.703125 466.25 446.222656 462.308594 439.421875 459.269531 C 429.289062 454.722656 414.035156 452.742188 395.640625 455.738281 C 377.261719 458.679688 355.851562 466.464844 333.480469 480.425781 C 290.339844 507.304688 243.535156 557.089844 206.855469 638.464844 Z M 140.839844 1119.722656 C 146.054688 1197.09375 171.902344 1261.550781 204.273438 1313.488281 C 236.621094 1365.40625 275.53125 1404.648438 306.285156 1430.78125 C 321.660156 1443.851562 334.976562 1453.644531 344.378906 1460.117188 C 349.082031 1463.355469 352.800781 1465.765625 355.308594 1467.34375 C 356.5625 1468.136719 357.515625 1468.714844 358.132812 1469.089844 L 358.632812 1469.394531 C 408.996094 1495.515625 456.632812 1511.238281 501.179688 1519.363281 C 568.121094 1531.558594 628.179688 1526.640625 680.070312 1513.484375 C 731.949219 1500.3125 775.617188 1478.828125 809.171875 1457.910156 C 833.804688 1442.554688 852.972656 1427.519531 865.886719 1416.394531 C 871.351562 1411.695312 875.625 1407.753906 878.789062 1404.730469 L 741.589844 988.980469 L 427.457031 681.523438 C 412.128906 686.945312 378.324219 700.328125 339.203125 724.730469 C 293.089844 753.46875 239.746094 797.390625 199.933594 861.238281 C 180.023438 893.183594 163.429688 930.125 152.707031 972.898438 C 141.984375 1015.6875 137.121094 1064.328125 140.839844 1119.722656 Z M 837.097656 1610.375 C 926.300781 1613.277344 991.601562 1593.15625 1034.734375 1566.261719 C 1064.589844 1547.683594 1083.785156 1525.746094 1093.148438 1506.433594 C 1097.859375 1496.789062 1100.097656 1487.851562 1100.363281 1480.445312 C 1100.636719 1473.007812 1099.0625 1467.246094 1096.308594 1462.808594 C 1090.527344 1453.550781 1083.601562 1445.878906 1075.761719 1439.390625 C 1062.0625 1428.058594 1045.398438 1420.382812 1027.777344 1415.445312 C 1001.382812 1408.011719 973.046875 1406.910156 951.523438 1407.839844 C 940.765625 1408.289062 931.695312 1409.230469 925.394531 1410.046875 C 922.242188 1410.453125 919.785156 1410.824219 918.140625 1411.097656 C 917.332031 1411.226562 916.710938 1411.332031 916.324219 1411.40625 L 915.902344 1411.480469 L 915.820312 1411.496094 C 914.53125 1411.742188 913.253906 1411.769531 911.992188 1411.703125 C 911.359375 1415.679688 909.207031 1419.273438 905.9375 1421.703125 C 898.542969 1429.226562 870.679688 1456.238281 825.640625 1484.328125 C 778.042969 1513.992188 711.144531 1544.898438 629.113281 1554.480469 C 617.363281 1555.855469 605.257812 1556.726562 592.910156 1557.15625 C 688.308594 1592.761719 769.566406 1608.1875 837.097656 1610.375 Z M 452.050781 430.816406 C 463.523438 435.890625 473.378906 443.757812 479.878906 454.207031 C 487.507812 466.4375 492.636719 479.273438 495.722656 492.199219 C 501.128906 514.824219 500.332031 537.554688 496.433594 558.714844 C 490.546875 590.457031 477.714844 618.9375 466.421875 639.75 C 461.3125 649.136719 456.515625 656.933594 452.746094 662.722656 L 766.058594 969.386719 C 767.820312 971.109375 769.183594 973.300781 769.953125 975.636719 L 904.453125 1383.152344 C 906.082031 1382.101562 907.910156 1381.320312 909.929688 1380.933594 C 910.78125 1380.800781 947.628906 1373.640625 992.5 1377.664062 C 1014.945312 1379.714844 1039.476562 1384.558594 1062.605469 1395.027344 C 1074.15625 1400.265625 1085.347656 1406.929688 1095.585938 1415.398438 C 1105.824219 1423.847656 1115.109375 1434.113281 1122.71875 1446.335938 C 1129.238281 1456.78125 1131.964844 1469.097656 1131.472656 1481.636719 C 1130.703125 1500.515625 1123.125 1520.226562 1109.683594 1539.289062 C 1096.207031 1558.339844 1076.71875 1576.765625 1051.203125 1592.679688 C 1002.011719 1623.339844 930.445312 1644.554688 836.085938 1641.484375 C 744.21875 1638.496094 630.769531 1612.535156 494.6875 1549.8125 C 447.183594 1541.054688 396.71875 1524.261719 343.980469 1496.859375 L 343.359375 1496.515625 C 342.738281 1496.152344 318.695312 1482.1875 286.121094 1454.496094 C 253.558594 1426.808594 212.425781 1385.390625 177.851562 1329.960938 C 143.308594 1274.558594 115.367188 1204.988281 109.78125 1121.8125 C 106.722656 1076.390625 109.160156 1034.867188 115.808594 996.992188 C 112.359375 994.082031 110.152344 989.761719 110.238281 984.910156 C 112.621094 828.964844 139.683594 711.753906 178.476562 625.667969 C 217.265625 539.59375 267.835938 484.671875 317.007812 454.003906 C 351.042969 432.820312 384.34375 423.140625 412.996094 423.175781 C 427.320312 423.230469 440.539062 425.710938 452.050781 430.816406 " fill-opacity="1" fill-rule="nonzero"/></g></g></g><g clip-path="url(#id33)"><g clip-path="url(#id34)"><g clip-path="url(#id35)"><path fill="rgb(100%, 100%, 100%)" d="M 617.925781 1066.070312 L 402.503906 855.226562 L 356.789062 810.480469 C 350.644531 804.472656 350.546875 794.613281 356.5625 788.476562 C 362.570312 782.324219 372.421875 782.21875 378.5625 788.234375 L 642.402344 1046.476562 C 644.167969 1048.199219 645.53125 1050.386719 646.300781 1052.722656 L 762.007812 1403.3125 C 764.707031 1411.476562 760.273438 1420.273438 752.113281 1422.96875 C 743.949219 1425.664062 735.140625 1421.234375 732.449219 1413.070312 L 712.40625 1352.328125 L 617.925781 1066.070312 " fill-opacity="1" fill-rule="nonzero"/></g></g></g><g clip-path="url(#id36)"><g clip-path="url(#id37)"><g clip-path="url(#id38)"><path fill="rgb(100%, 100%, 100%)" d="M 757.003906 213.882812 C 721.664062 168.90625 669.542969 121.058594 595.175781 73.894531 C 616.496094 100.476562 632.222656 128.351562 643.625 155.835938 C 661.183594 198.132812 668.683594 239.480469 671.347656 274.175781 C 674.851562 319.984375 669.957031 354.265625 668.269531 364.269531 C 672.863281 372.800781 683.742188 391.445312 699.605469 409.222656 C 710.277344 421.222656 723.167969 432.75 737.523438 440.730469 C 744.707031 444.726562 752.246094 447.84375 760.105469 449.800781 C 767.976562 451.757812 776.171875 452.570312 784.847656 451.914062 C 789.023438 451.585938 793.496094 449.859375 798.183594 446.148438 C 805.183594 440.621094 812.257812 430.488281 816.960938 416.273438 C 821.691406 402.089844 824.101562 383.945312 822.476562 362.820312 C 819.363281 322.101562 801.308594 270.257812 757.003906 213.882812 Z M 438.910156 -12.039062 C 381.894531 -37.082031 326.402344 -42.632812 277.40625 -38.882812 C 228.429688 -35.144531 186.039062 -22.015625 156.007812 -9.824219 C 140.992188 -3.730469 129.074219 2.113281 120.972656 6.402344 C 116.921875 8.550781 113.824219 10.300781 111.769531 11.503906 C 110.742188 12.101562 109.972656 12.5625 109.480469 12.867188 L 109.074219 13.109375 C 71.769531 39.269531 42.882812 67.355469 20.550781 96.066406 C -12.996094 139.214844 -31.804688 183.820312 -41.714844 225.671875 C -51.609375 267.515625 -52.535156 306.609375 -50.105469 338.285156 C -48.324219 361.539062 -44.738281 380.78125 -41.617188 394.113281 C -40.300781 399.753906 -39.082031 404.265625 -38.109375 407.640625 L 308.832031 464.464844 L 644.402344 355.003906 C 646.234375 342.074219 649.265625 313.019531 646.425781 276.085938 C 643.097656 232.554688 631.644531 178.230469 600.976562 126.140625 C 585.632812 100.082031 565.496094 74.535156 539.027344 50.992188 C 512.550781 27.453125 479.730469 5.90625 438.910156 -12.039062 Z M -169.019531 301.5 C -204.222656 363.960938 -214.152344 417.953125 -211.03125 458.671875 C -208.894531 486.839844 -200.40625 508.667969 -190.136719 522.519531 C -185.019531 529.457031 -179.488281 534.375 -174.316406 537.316406 C -169.121094 540.273438 -164.433594 541.296875 -160.25 540.984375 C -151.515625 540.308594 -143.480469 538.226562 -135.945312 535.054688 C -122.792969 529.507812 -111.140625 520.492188 -101.078125 509.777344 C -85.980469 493.742188 -74.671875 473.96875 -67.339844 458.292969 C -63.664062 450.460938 -60.964844 443.652344 -59.203125 438.859375 C -58.320312 436.464844 -57.675781 434.578125 -57.257812 433.300781 C -57.050781 432.679688 -56.894531 432.195312 -56.800781 431.894531 L -56.699219 431.566406 L -56.679688 431.503906 C -56.375 430.492188 -55.921875 429.570312 -55.402344 428.699219 C -58 426.769531 -59.757812 423.902344 -60.277344 420.667969 C -62.882812 412.605469 -71.765625 382.71875 -75.03125 340.195312 C -78.46875 295.265625 -75.621094 236.128906 -51.972656 174.136719 C -48.582031 165.253906 -44.707031 156.3125 -40.425781 147.355469 C -101.210938 202.066406 -142.378906 254.210938 -169.019531 301.5 Z M 813.746094 465.71875 C 805.875 472.003906 796.613281 476.097656 786.757812 476.84375 C 775.21875 477.730469 764.175781 476.613281 753.828125 474.007812 C 735.710938 469.445312 719.824219 460.429688 706.210938 449.789062 C 685.796875 433.792969 670.289062 414.070312 659.667969 398.289062 C 654.882812 391.160156 651.113281 384.84375 648.394531 380.007812 L 313.691406 489.175781 C 311.8125 489.789062 309.746094 489.945312 307.796875 489.628906 L -32.277344 433.941406 C -32.132812 435.492188 -32.257812 437.085938 -32.730469 438.667969 C -32.953125 439.324219 -41.542969 468.230469 -61.078125 498.695312 C -70.871094 513.917969 -83.4375 529.59375 -99.480469 542.175781 C -107.5 548.453125 -116.402344 553.949219 -126.230469 558.09375 C -136.050781 562.246094 -146.808594 565.042969 -158.335938 565.917969 C -168.195312 566.679688 -177.972656 564.046875 -186.71875 559.03125 C -199.875 551.464844 -211.089844 538.738281 -219.667969 522.082031 C -228.226562 505.402344 -234.101562 484.667969 -235.953125 460.582031 C -239.507812 414.144531 -228.027344 355.28125 -190.792969 289.214844 C -154.539062 224.890625 -93.914062 153.734375 1.285156 80.121094 C 25.167969 49.542969 55.867188 19.839844 94.964844 -7.539062 L 95.441406 -7.851562 C 95.929688 -8.160156 114.804688 -20.09375 146.617188 -33 C 178.421875 -45.902344 223.191406 -59.804688 275.492188 -63.824219 C 327.765625 -67.835938 387.671875 -61.878906 448.960938 -34.933594 C 482.433594 -20.230469 511.089844 -3.058594 535.582031 15.757812 C 538.9375 14.382812 542.832031 14.414062 546.253906 16.277344 C 656.386719 75.945312 729.777344 138.792969 776.652344 198.425781 C 823.523438 258.050781 843.835938 314.484375 847.402344 360.910156 C 849.839844 393.027344 844.359375 420.34375 833.695312 440.738281 C 828.335938 450.921875 821.65625 459.414062 813.746094 465.71875 " fill-opacity="1" fill-rule="nonzero"/></g></g></g><g clip-path="url(#id39)"><g clip-path="url(#id40)"><g clip-path="url(#id41)"><path fill="rgb(100%, 100%, 100%)" d="M 299.886719 347.722656 L 530.011719 272.660156 L 578.847656 256.734375 C 585.40625 254.589844 592.460938 258.183594 594.597656 264.75 C 596.746094 271.316406 593.160156 278.371094 586.597656 280.511719 L 304.746094 372.441406 C 302.863281 373.058594 300.800781 373.21875 298.851562 372.894531 L 6.285156 324.988281 C -0.53125 323.875 -5.148438 317.449219 -4.035156 310.632812 C -2.921875 303.816406 3.503906 299.1875 10.316406 300.308594 L 61.003906 308.609375 L 299.886719 347.722656 " fill-opacity="1" fill-rule="nonzero"/></g></g></g></svg>